<svg width="16" height="16" viewBox="0 0 16 16" fill="none" xmlns="http://www.w3.org/2000/svg">
<g clip-path="url(#clip0_417_6)">
<mask id="mask0_417_6" style="mask-type:luminance" maskUnits="userSpaceOnUse" x="0" y="0" width="16" height="16">
<path d="M16 0H0V16H16V0Z" fill="white"/>
</mask>
<g mask="url(#mask0_417_6)">
<path d="M6.60918 4.03202C6.41818 1.83502 4.12618 0.757016 4.02918 0.713016C3.9385 0.670389 3.83689 0.65677 3.73818 0.674016C1.09218 1.11302 0.694179 2.65302 0.678179 2.71702C0.656411 2.80621 0.659873 2.89969 0.688179 2.98702C3.84418 12.779 10.4032 14.594 12.5592 15.191C12.7252 15.237 12.8622 15.274 12.9662 15.308C13.0849 15.3468 13.2138 15.3393 13.3272 15.287C13.3932 15.257 14.9512 14.523 15.3322 12.129C15.3491 12.0245 15.3323 11.9173 15.2842 11.823C15.2502 11.757 14.4352 10.206 12.1752 9.65802C12.0985 9.63841 12.0182 9.63771 11.9413 9.656C11.8643 9.67429 11.7929 9.71102 11.7332 9.76301C11.0202 10.372 10.0352 11.021 9.61018 11.088C6.76118 9.69502 5.17018 7.02202 5.11018 6.51502C5.07518 6.23002 5.72818 5.22902 6.47918 4.41502C6.52639 4.36379 6.56234 4.30325 6.58473 4.23728C6.60712 4.17132 6.61545 4.1014 6.60918 4.03202Z" fill="#24232b"/>
</g>
</g>
<defs>
<clipPath id="clip0_417_6">
<rect width="16" height="16" fill="white"/>
</clipPath>
</defs>
</svg>
