<svg width="24" height="24" viewBox="0 0 24 24" fill="none" xmlns="http://www.w3.org/2000/svg">
<path d="M23.9478 7.12131L21.1565 15.9126C20.9478 16.5387 20.4 16.9561 19.7478 16.9561H8.97391C8.34783 16.9561 7.74783 16.5648 7.53913 15.9909L3.41739 4.9561H1.04348C0.469565 4.9561 0 4.48653 0 3.91262C0 3.33871 0.469565 2.86914 1.04348 2.86914H4.14783C4.5913 2.86914 4.98261 3.1561 5.13913 3.57349L9.3913 14.8691H19.3043L21.5217 7.82566H9.23478C8.66087 7.82566 8.1913 7.3561 8.1913 6.78218C8.1913 6.20827 8.66087 5.73871 9.23478 5.73871H22.9565C23.2957 5.73871 23.6087 5.92131 23.7913 6.18218C24 6.44305 24.0522 6.80827 23.9478 7.12131ZM9.49565 18.3387C9.05217 18.3387 8.6087 18.5213 8.29565 18.8344C7.98261 19.1474 7.8 19.5909 7.8 20.0344C7.8 20.4778 7.98261 20.9213 8.29565 21.2344C8.6087 21.5474 9.05217 21.73 9.49565 21.73C9.93913 21.73 10.3826 21.5474 10.6957 21.2344C11.0087 20.9213 11.1913 20.4778 11.1913 20.0344C11.1913 19.5909 11.0087 19.1474 10.6957 18.8344C10.3826 18.5213 9.93913 18.3387 9.49565 18.3387ZM18.8609 18.3387C18.4174 18.3387 17.9739 18.5213 17.6609 18.8344C17.3478 19.1474 17.1652 19.5909 17.1652 20.0344C17.1652 20.4778 17.3478 20.9213 17.6609 21.2344C17.9739 21.5474 18.4174 21.73 18.8609 21.73C19.3043 21.73 19.7478 21.5474 20.0609 21.2344C20.3739 20.9213 20.5565 20.4778 20.5565 20.0344C20.5565 19.5909 20.3739 19.1474 20.0609 18.8344C19.7478 18.5213 19.3043 18.3387 18.8609 18.3387Z" fill="#F9B707"/>
</svg>
