<svg width="30" height="30" viewBox="0 0 30 30" fill="none" xmlns="http://www.w3.org/2000/svg">
<path d="M17 11H4C3.73478 11 3.48043 10.8946 3.29289 10.7071C3.10536 10.5196 3 10.2652 3 10C3 9.73478 3.10536 9.48043 3.29289 9.29289C3.48043 9.10536 3.73478 9 4 9H17C17.2652 9 17.5196 9.10536 17.7071 9.29289C17.8946 9.48043 18 9.73478 18 10C18 10.2652 17.8946 10.5196 17.7071 10.7071C17.5196 10.8946 17.2652 11 17 11ZM26 11H22C21.7348 11 21.4804 10.8946 21.2929 10.7071C21.1054 10.5196 21 10.2652 21 10C21 9.73478 21.1054 9.48043 21.2929 9.29289C21.4804 9.10536 21.7348 9 22 9H26C26.2652 9 26.5196 9.10536 26.7071 9.29289C26.8946 9.48043 27 9.73478 27 10C27 10.2652 26.8946 10.5196 26.7071 10.7071C26.5196 10.8946 26.2652 11 26 11Z" fill="#111224"/>
<path d="M19.5 13.5C18.8078 13.5 18.1311 13.2947 17.5555 12.9101C16.9799 12.5256 16.5313 11.9789 16.2664 11.3394C16.0015 10.6999 15.9322 9.99612 16.0673 9.31718C16.2023 8.63825 16.5356 8.01461 17.0251 7.52513C17.5146 7.03564 18.1383 6.7023 18.8172 6.56725C19.4961 6.4322 20.1999 6.50152 20.8394 6.76642C21.4789 7.03133 22.0256 7.47993 22.4101 8.05551C22.7947 8.63108 23 9.30777 23 10C23 10.9283 22.6313 11.8185 21.9749 12.4749C21.3185 13.1313 20.4283 13.5 19.5 13.5ZM19.5 8.5C19.2033 8.5 18.9133 8.58797 18.6666 8.7528C18.42 8.91762 18.2277 9.15189 18.1142 9.42598C18.0007 9.70007 17.9709 10.0017 18.0288 10.2926C18.0867 10.5836 18.2296 10.8509 18.4393 11.0607C18.6491 11.2704 18.9164 11.4133 19.2074 11.4712C19.4983 11.5291 19.7999 11.4994 20.074 11.3858C20.3481 11.2723 20.5824 11.08 20.7472 10.8334C20.912 10.5867 21 10.2967 21 10C21 9.60218 20.842 9.22065 20.5607 8.93934C20.2794 8.65804 19.8978 8.5 19.5 8.5ZM26 21H13C12.7348 21 12.4804 20.8946 12.2929 20.7071C12.1054 20.5196 12 20.2652 12 20C12 19.7348 12.1054 19.4804 12.2929 19.2929C12.4804 19.1054 12.7348 19 13 19H26C26.2652 19 26.5196 19.1054 26.7071 19.2929C26.8946 19.4804 27 19.7348 27 20C27 20.2652 26.8946 20.5196 26.7071 20.7071C26.5196 20.8946 26.2652 21 26 21ZM8 21H4C3.73478 21 3.48043 20.8946 3.29289 20.7071C3.10536 20.5196 3 20.2652 3 20C3 19.7348 3.10536 19.4804 3.29289 19.2929C3.48043 19.1054 3.73478 19 4 19H8C8.26522 19 8.51957 19.1054 8.70711 19.2929C8.89464 19.4804 9 19.7348 9 20C9 20.2652 8.89464 20.5196 8.70711 20.7071C8.51957 20.8946 8.26522 21 8 21Z" fill="#111224"/>
<path d="M10.5 23.5C9.80777 23.5 9.13108 23.2947 8.55551 22.9101C7.97993 22.5256 7.53133 21.9789 7.26642 21.3394C7.00152 20.6999 6.9322 19.9961 7.06725 19.3172C7.2023 18.6383 7.53564 18.0146 8.02513 17.5251C8.51461 17.0356 9.13825 16.7023 9.81718 16.5673C10.4961 16.4322 11.1999 16.5015 11.8394 16.7664C12.4789 17.0313 13.0256 17.4799 13.4101 18.0555C13.7947 18.6311 14 19.3078 14 20C14 20.9283 13.6313 21.8185 12.9749 22.4749C12.3185 23.1313 11.4283 23.5 10.5 23.5ZM10.5 18.5C10.2033 18.5 9.91332 18.588 9.66665 18.7528C9.41997 18.9176 9.22771 19.1519 9.11418 19.426C9.00065 19.7001 8.97095 20.0017 9.02882 20.2926C9.0867 20.5836 9.22956 20.8509 9.43934 21.0607C9.64912 21.2704 9.91639 21.4133 10.2074 21.4712C10.4983 21.5291 10.7999 21.4994 11.074 21.3858C11.3481 21.2723 11.5824 21.08 11.7472 20.8334C11.912 20.5867 12 20.2967 12 20C12 19.6022 11.842 19.2206 11.5607 18.9393C11.2794 18.658 10.8978 18.5 10.5 18.5Z" fill="#111224"/>
</svg>
