<svg width="40" height="40" viewBox="0 0 40 40" fill="none" xmlns="http://www.w3.org/2000/svg">
<path fill-rule="evenodd" clip-rule="evenodd" d="M1.90039 8.84426C1.90039 8.07421 2.52462 7.45001 3.29462 7.45001H36.7561C37.5261 7.45001 38.1504 8.07421 38.1504 8.84426C38.1504 9.61426 37.5261 10.2385 36.7561 10.2385H3.29462C2.52462 10.2385 1.90039 9.61426 1.90039 8.84426Z" fill="#24232b"/>
<path fill-rule="evenodd" clip-rule="evenodd" d="M13.0547 19.9981C13.0547 19.2281 13.6789 18.6039 14.4489 18.6039H36.7566C37.5266 18.6039 38.1508 19.2281 38.1508 19.9981C38.1508 20.7681 37.5266 21.3923 36.7566 21.3923H14.4489C13.6789 21.3923 13.0547 20.7681 13.0547 19.9981Z" fill="#24232b"/>
<path fill-rule="evenodd" clip-rule="evenodd" d="M1.90039 31.1519C1.90039 30.3819 2.52462 29.7577 3.29462 29.7577H36.7561C37.5261 29.7577 38.1504 30.3819 38.1504 31.1519C38.1504 31.9219 37.5261 32.5461 36.7561 32.5461H3.29462C2.52462 32.5461 1.90039 31.9219 1.90039 31.1519Z" fill="#24232b"/>
</svg>
