<svg width="24" height="24" viewBox="0 0 24 24" fill="none" xmlns="http://www.w3.org/2000/svg">
<path d="M22.7915 12.0238L20.625 13.34V11.6607L21.8132 10.9402C21.8971 10.8875 21.9572 10.8042 21.9807 10.7079C22.0042 10.6117 21.9893 10.51 21.9391 10.4246L20.5833 8.19399C20.5315 8.10917 20.4483 8.04829 20.3518 8.02468C20.2553 8.00107 20.1534 8.01666 20.0684 8.06803L17.2954 9.74964H13.6042L18.5917 6.71964C18.6756 6.66702 18.7357 6.58376 18.7592 6.48755C18.7827 6.39133 18.7677 6.28975 18.7175 6.20439L17.9385 4.92227C17.8867 4.8374 17.8035 4.77652 17.7069 4.75297C17.6103 4.72942 17.5084 4.74512 17.4234 4.79664L9.27079 9.74964H4.14551L16.7556 2.08888C17.0107 1.93433 17.3166 1.88721 17.6064 1.95784C17.8961 2.02848 18.1461 2.21112 18.3014 2.46572L23.1689 10.478C23.3213 10.7337 23.3672 11.039 23.2966 11.3282C23.226 11.6174 23.0446 11.8672 22.7915 12.0238ZM19.875 11.933V20.9996C19.8747 21.2979 19.756 21.5839 19.5451 21.7948C19.3342 22.0057 19.0483 22.1243 18.75 22.1246H1.875C1.57673 22.1243 1.29077 22.0057 1.07987 21.7948C0.868959 21.5839 0.750328 21.2979 0.75 20.9996V11.6246C0.750328 11.3264 0.868959 11.0404 1.07987 10.8295C1.29077 10.6186 1.57673 10.5 1.875 10.4996H18.75C19.0011 10.5029 19.2441 10.5891 19.4412 10.7446C19.6384 10.9002 19.7786 11.1165 19.8402 11.3599C19.8746 11.5489 19.8863 11.7413 19.875 11.933ZM10.125 18.3746C10.222 18.371 10.3139 18.3299 10.3812 18.26C10.4486 18.1901 10.4862 18.0967 10.4862 17.9996C10.4862 17.9025 10.4486 17.8092 10.3812 17.7393C10.3139 17.6694 10.222 17.6283 10.125 17.6246C10.028 17.6283 9.93613 17.6694 9.86877 17.7393C9.8014 17.8092 9.76377 17.9025 9.76377 17.9996C9.76377 18.0967 9.8014 18.1901 9.86877 18.26C9.93613 18.3299 10.028 18.371 10.125 18.3746ZM9 18.3746C9.09703 18.371 9.18887 18.3299 9.25623 18.26C9.32359 18.1901 9.36123 18.0967 9.36123 17.9996C9.36123 17.9025 9.32359 17.8092 9.25623 17.7393C9.18887 17.6694 9.09703 17.6283 9 17.6246C8.90297 17.6283 8.81113 17.6694 8.74377 17.7393C8.6764 17.8092 8.63877 17.9025 8.63877 17.9996C8.63877 18.0967 8.6764 18.1901 8.74377 18.26C8.81113 18.3299 8.90297 18.371 9 18.3746ZM6.375 18.3746C6.47203 18.371 6.56387 18.3299 6.63123 18.26C6.69859 18.1901 6.73623 18.0967 6.73623 17.9996C6.73623 17.9025 6.69859 17.8092 6.63123 17.7393C6.56387 17.6694 6.47203 17.6283 6.375 17.6246C6.27797 17.6283 6.18613 17.6694 6.11877 17.7393C6.05141 17.8092 6.01377 17.9025 6.01377 17.9996C6.01377 18.0967 6.05141 18.1901 6.11877 18.26C6.18613 18.3299 6.27797 18.371 6.375 18.3746ZM4.875 17.9996C4.87863 18.0967 4.91973 18.1885 4.98966 18.2559C5.05959 18.3232 5.1529 18.3609 5.25 18.3609C5.3471 18.3609 5.44041 18.3232 5.51034 18.2559C5.58027 18.1885 5.62137 18.0967 5.625 17.9996C5.62137 17.9026 5.58027 17.8108 5.51034 17.7434C5.44041 17.676 5.3471 17.6384 5.25 17.6384C5.1529 17.6384 5.05959 17.676 4.98966 17.7434C4.91973 17.8108 4.87863 17.9026 4.875 17.9996ZM2.625 16.1246H4.875C4.97446 16.1246 5.06984 16.0851 5.14016 16.0148C5.21049 15.9445 5.25 15.8491 5.25 15.7496V13.4996C5.25 13.4002 5.21049 13.3048 5.14016 13.2345C5.06984 13.1642 4.97446 13.1246 4.875 13.1246H2.625C2.52665 13.1281 2.43328 13.1688 2.3637 13.2383C2.29411 13.3079 2.25349 13.4013 2.25 13.4996V15.7496C2.25276 15.8481 2.29305 15.9418 2.36261 16.0115C2.43218 16.0812 2.52577 16.1217 2.62421 16.1246H2.625ZM3.75 17.9996C3.75363 18.0967 3.79473 18.1885 3.86466 18.2559C3.93459 18.3232 4.0279 18.3609 4.125 18.3609C4.2221 18.3609 4.31541 18.3232 4.38534 18.2559C4.45527 18.1885 4.49637 18.0967 4.5 17.9996C4.49637 17.9026 4.45527 17.8108 4.38534 17.7434C4.31541 17.676 4.2221 17.6384 4.125 17.6384C4.0279 17.6384 3.93459 17.676 3.86466 17.7434C3.79473 17.8108 3.75363 17.9026 3.75 17.9996ZM17.625 19.4996C17.625 19.4002 17.5855 19.3048 17.5152 19.2345C17.4448 19.1642 17.3495 19.1246 17.25 19.1246H3.375C3.27554 19.1246 3.18016 19.1642 3.10983 19.2345C3.03951 19.3048 3 19.4002 3 19.4996C3 19.5991 3.03951 19.6945 3.10983 19.7648C3.18016 19.8351 3.27554 19.8746 3.375 19.8746H17.25C17.3495 19.8746 17.4448 19.8351 17.5152 19.7648C17.5855 19.6945 17.625 19.5991 17.625 19.4996ZM11.625 17.9996C11.6214 17.9026 11.5803 17.8108 11.5103 17.7434C11.4404 17.676 11.3471 17.6384 11.25 17.6384C11.1529 17.6384 11.0596 17.676 10.9897 17.7434C10.9197 17.8108 10.8786 17.9026 10.875 17.9996C10.8786 18.0967 10.9197 18.1885 10.9897 18.2559C11.0596 18.3232 11.1529 18.3609 11.25 18.3609C11.3471 18.3609 11.4404 18.3232 11.5103 18.2559C11.5803 18.1885 11.6214 18.0967 11.625 17.9996ZM12.75 17.9996C12.7464 17.9026 12.7053 17.8108 12.6353 17.7434C12.5654 17.676 12.4721 17.6384 12.375 17.6384C12.2779 17.6384 12.1846 17.676 12.1147 17.7434C12.0447 17.8108 12.0036 17.9026 12 17.9996C12.0036 18.0967 12.0447 18.1885 12.1147 18.2559C12.1846 18.3232 12.2779 18.3609 12.375 18.3609C12.4721 18.3609 12.5654 18.3232 12.6353 18.2559C12.7053 18.1885 12.7464 18.0967 12.75 17.9996ZM13.875 17.9996C13.8714 17.9026 13.8303 17.8108 13.7603 17.7434C13.6904 17.676 13.5971 17.6384 13.5 17.6384C13.4029 17.6384 13.3096 17.676 13.2397 17.7434C13.1697 17.8108 13.1286 17.9026 13.125 17.9996C13.1286 18.0967 13.1697 18.1885 13.2397 18.2559C13.3096 18.3232 13.4029 18.3609 13.5 18.3609C13.5971 18.3609 13.6904 18.3232 13.7603 18.2559C13.8303 18.1885 13.8714 18.0967 13.875 17.9996ZM15 17.9996C14.9964 17.9026 14.9553 17.8108 14.8853 17.7434C14.8154 17.676 14.7221 17.6384 14.625 17.6384C14.5279 17.6384 14.4346 17.676 14.3647 17.7434C14.2947 17.8108 14.2536 17.9026 14.25 17.9996C14.2536 18.0967 14.2947 18.1885 14.3647 18.2559C14.4346 18.3232 14.5279 18.3609 14.625 18.3609C14.7221 18.3609 14.8154 18.3232 14.8853 18.2559C14.9553 18.1885 14.9964 18.0967 15 17.9996ZM16.125 17.9996C16.1214 17.9026 16.0803 17.8108 16.0103 17.7434C15.9404 17.676 15.8471 17.6384 15.75 17.6384C15.6529 17.6384 15.5596 17.676 15.4897 17.7434C15.4197 17.8108 15.3786 17.9026 15.375 17.9996C15.3786 18.0967 15.4197 18.1885 15.4897 18.2559C15.5596 18.3232 15.6529 18.3609 15.75 18.3609C15.8471 18.3609 15.9404 18.3232 16.0103 18.2559C16.0803 18.1885 16.1214 18.0967 16.125 17.9996ZM17.25 17.9996C17.2464 17.9026 17.2053 17.8108 17.1353 17.7434C17.0654 17.676 16.9721 17.6384 16.875 17.6384C16.7779 17.6384 16.6846 17.676 16.6147 17.7434C16.5447 17.8108 16.5036 17.9026 16.5 17.9996C16.5036 18.0967 16.5447 18.1885 16.6147 18.2559C16.6846 18.3232 16.7779 18.3609 16.875 18.3609C16.9721 18.3609 17.0654 18.3232 17.1353 18.2559C17.2053 18.1885 17.2464 18.0967 17.25 17.9996ZM17.25 13.4996H10.5C10.4028 13.503 10.3107 13.544 10.2431 13.614C10.1755 13.6839 10.1378 13.7774 10.1378 13.8746C10.1378 13.9719 10.1755 14.0654 10.2431 14.1353C10.3107 14.2053 10.4028 14.2463 10.5 14.2496H17.25C17.3472 14.2463 17.4393 14.2053 17.5069 14.1353C17.5745 14.0654 17.6122 13.9719 17.6122 13.8746C17.6122 13.7774 17.5745 13.6839 17.5069 13.614C17.4393 13.544 17.3472 13.503 17.25 13.4996ZM17.25 12.3746H12.375C12.2778 12.378 12.1857 12.419 12.1181 12.489C12.0505 12.5589 12.0128 12.6524 12.0128 12.7496C12.0128 12.8469 12.0505 12.9404 12.1181 13.0103C12.1857 13.0803 12.2778 13.1213 12.375 13.1246H17.25C17.3472 13.1213 17.4393 13.0803 17.5069 13.0103C17.5745 12.9404 17.6122 12.8469 17.6122 12.7496C17.6122 12.6524 17.5745 12.5589 17.5069 12.489C17.4393 12.419 17.3472 12.378 17.25 12.3746ZM3.73605 15.3746H4.5V14.9996H3.9417C3.89511 15.1355 3.82555 15.2623 3.73605 15.3746ZM3 15.0658C3.0667 15.0198 3.12329 14.9606 3.16627 14.8919C3.20925 14.8233 3.23773 14.7465 3.24994 14.6664C3.22431 14.4943 3.13514 14.3381 3 14.2285V15.0658ZM3.91436 14.2496H4.5V13.8746H3.69071C3.78292 13.9882 3.85825 14.1145 3.91436 14.2496Z" fill="#F9B707"/>
</svg>
