<svg width="24" height="24" viewBox="0 0 24 24" fill="none" xmlns="http://www.w3.org/2000/svg">
<g clip-path="url(#clip0_141_2)">
<path d="M8.4 2.28882e-05C3.77913 2.28882e-05 0 3.78041 0 8.40001C0 13.0196 3.77913 16.8 8.4 16.8C13.0209 16.8 16.8 13.0196 16.8 8.40001C16.8 3.78041 13.0209 2.28882e-05 8.4 2.28882e-05ZM8.4 3.19903C11.2897 3.19903 13.599 5.50801 13.599 8.40001C13.599 11.292 11.2897 13.601 8.4 13.601C5.51034 13.601 3.20094 11.292 3.20094 8.40001C3.20094 5.50801 5.51034 3.19903 8.4 3.19903Z" fill="#24232B"/>
<path d="M13.2006 11.6018C12.9904 11.6018 12.7823 11.6431 12.5881 11.7234C12.3939 11.8037 12.2174 11.9215 12.0687 12.07C11.7685 12.3699 11.5997 12.7767 11.5996 13.2009C11.5995 13.6251 11.768 14.032 12.068 14.332L21.2671 23.5311C21.5671 23.8312 21.9741 23.9998 22.3986 24C22.8231 24.0001 23.2302 23.8317 23.5305 23.5318C23.8307 23.2319 23.9995 22.8252 23.9996 22.4009C23.9997 21.9767 23.8313 21.5698 23.5312 21.2698L14.3321 12.0707C14.0321 11.7707 13.6251 11.602 13.2006 11.6018Z" fill="#24232B"/>
<path d="M11.9948 8.99969C11.9422 8.99969 11.8902 8.98936 11.8416 8.96927C11.7931 8.94917 11.749 8.91972 11.7118 8.88259C11.6746 8.84546 11.6452 8.80138 11.625 8.75286C11.6049 8.70435 11.5946 8.65234 11.5946 8.59983C11.5946 7.54132 11.1022 6.54403 10.262 5.90047C9.42178 5.25691 8.33087 5.04138 7.30911 5.31707C7.20666 5.34472 7.09742 5.33056 7.00542 5.27772C6.91342 5.22488 6.84619 5.13767 6.81852 5.03529C6.80482 4.98459 6.80125 4.93169 6.80801 4.87961C6.81477 4.82753 6.83173 4.7773 6.85792 4.73177C6.88411 4.68624 6.91902 4.64631 6.96065 4.61427C7.00227 4.58222 7.04981 4.55868 7.10054 4.545C8.36221 4.20457 9.71141 4.47115 10.7488 5.26572C11.7862 6.0603 12.3948 7.29325 12.3948 8.59983C12.3948 8.70588 12.3527 8.80758 12.2777 8.88256C12.2026 8.95755 12.1009 8.99968 11.9948 8.99969Z" fill="#24232B"/>
</g>
<defs>
<clipPath id="clip0_141_2">
<rect width="24" height="24" fill="white"/>
</clipPath>
</defs>
</svg>
